<svg xmlns="http://www.w3.org/2000/svg" xmlns:xlink="http://www.w3.org/1999/xlink" version="1.1" id="Layer_1" x="0px" y="0px" width="100px" height="100px" viewBox="0 0 100 100" enable-background="new 0 0 100 100" xml:space="preserve" fill="pink" stroke="black" stroke-width="3px">
<path fill-rule="evenodd" clip-rule="evenodd" d="M98.268,14.229c1.127,6.534-0.395,12.284-0.635,17.58  c-0.086,1.871,0.329,3.884,0,5.719c-0.109,0.607-0.536,1.007-0.848,1.695c-0.265,0.585-0.383,1.362-0.635,1.906  c-0.285,0.612-0.609,1.118-0.848,1.694c-0.482,1.168-0.692,2.464-1.06,4.024c-0.146,0.629-0.49,1.271-0.635,1.907  c-0.334,1.458-0.396,2.905-0.848,4.024c-0.221,0.548-0.506,0.968-0.848,1.482c-0.686,1.034-1.893,2.603-2.753,3.812  c-0.415,0.583-1.065,1.093-1.271,1.694c-0.169,0.497-0.134,1.372-0.212,1.906c-0.104,0.724-0.126,1.356-0.211,1.907  c-0.188,1.195-0.219,2.509-0.636,3.601c-0.238,0.624-0.725,1.03-1.271,1.694c-1.047,1.271-2.217,2.621-3.389,4.024  c-0.974,1.164-2.001,3.466-2.754,5.083c-0.698,1.498-1.313,2.913-1.906,4.448c-1.149,0.803-2.49,1.859-3.813,2.965  c-0.468,0.391-0.824,0.543-1.481,1.06c-0.302,0.236-0.433,0.55-0.636,0.635c-0.375,0.156-1.096,0.091-1.695,0.212  c-2.248,0.456-5.189,1.131-7.837,1.694c-1.081,0.23-2.266,0.617-3.177,0.636c-1.878,0.039-3.786-0.678-5.507-0.847  c-1.106,0.518-2.195,1.052-3.389,1.482c-0.783-0.559-1.659-1.024-2.542-1.482c-1.977,0.16-3.952,1.059-6.143,1.059  c-1.877,0-4.106-0.803-6.354-1.271c-2.305-0.479-4.804-0.621-6.354-1.271c-0.908-0.381-1.499-1.085-2.33-1.694  c-0.286-0.21-0.635-0.257-0.847-0.424c-0.249-0.193-0.388-0.65-0.636-0.847c-0.28-0.222-0.587-0.219-0.847-0.424  c-0.48-0.376-0.864-0.966-1.483-1.059c-0.554-1.561-1.221-2.987-1.906-4.449c-0.665-1.417-1.306-2.951-2.119-4.235  c-1.477-2.335-3.822-4.192-5.507-6.566c-0.083-1.771-0.584-3.789-0.847-5.507c-0.093-0.609-0.031-1.365-0.212-1.906  c-0.154-0.462-0.315-0.381-0.635-0.848c-0.207-0.301-0.211-0.764-0.424-1.059c-0.116-0.162-0.293-0.228-0.423-0.424  c-0.132-0.199-0.402-0.495-0.636-0.848c-0.132-0.198-0.402-0.495-0.635-0.847c-0.158-0.238-0.542-0.856-0.848-1.271  c-0.766-1.042-1.064-1.081-1.482-2.755c-0.391-1.564-1.033-4.039-1.482-5.93c-0.182-0.765-0.186-1.61-0.424-2.33  c-0.423-1.28-1.442-2.822-2.118-4.236c-0.635-1.33-0.745-3.245-0.847-5.507c-0.059-1.292,0.069-2.564,0-3.813  c-0.133-2.402-0.688-4.848-0.847-7.413c-0.166-2.677,0.158-5.3,0.212-8.261c1.641,3.776,2.779,7.881,4.236,12.073  c0.183,0.528,0.414,1.225,0.635,1.695c0.715,1.518,2.003,2.75,2.965,4.024c1.002,1.328,1.81,2.746,2.965,3.812  c1.229,0.183,2.465,0.358,3.812,0.423c-0.062,1.898,0.375,3.297,0.212,5.295c0.876,0.89,2.303,1.227,3.601,1.694  c0.804,3.079,1.974,5.792,2.753,8.896c2.078-0.817,4.268-1.521,6.143-2.542c1.593,3.067,2.93,6.391,4.448,9.531  c1.471-0.648,3.278-0.958,4.66-1.694c1.108,0.516,1.708,1.54,2.754,2.118c2.14-2.125,4.371-4.021,7.202-6.143  c0.16-0.12,0.74-0.437,1.271-0.847c1.337-1.036,0.901-1.294,2.754,0c0.256,0.178,0.418,0.489,0.635,0.635  c0.99,0.663,1.87,1.385,2.966,2.118c1.535,1.028,2.996,2.628,4.236,4.024c1.199-0.424,1.595-1.653,2.753-2.118  c1.619,0.429,3.042,1.053,4.66,1.482c1.611-2.907,2.935-6.103,4.236-9.319c2.173,0.651,3.893,1.756,6.143,2.329  c1.216-2.666,1.854-5.912,2.966-8.683c1.09-0.534,2.298-0.949,3.389-1.483c0.008-1.898,0.355-3.457,0.212-5.507  c1.229-0.183,2.465-0.358,3.812-0.423c0.735-0.422,1-1.253,1.483-1.906c0.77-1.042,1.682-2.052,2.542-3.177  c0.125-0.164,0.073-0.451,0.211-0.636c0.444-0.595,1.156-1.065,1.483-1.694c0.276-0.531,0.382-1.212,0.635-1.906  C95.411,22.948,96.881,18.365,98.268,14.229z"/>
<path fill-rule="evenodd" clip-rule="evenodd" d="M50.398,25.667c1.782-0.767,2.976-2.069,4.872-2.33  c1.353-0.186,3.021,0.152,4.448,0.424c3.232,0.615,5.703,1.991,8.261,3.601c0.29,0.183,0.995,0.803,1.059,0.847  c1.237,0.864,2.977,2.524,4.024,3.812c0.182,0.224,0.301,0.326,0.505,0.583c0.134,0.167,0.444,0.515,0.555,0.688  c0.365,0.575,0.898,1.896,1.271,2.753c0.482,1.113,1.296,3.206,1.482,4.872c0.338,3.025-0.557,6.095-0.212,9.532  c-1.477-0.558-2.624-0.9-3.812-1.907c-2.015-1.706-0.801-6.353-2.966-8.26c-0.318-0.281-0.485-0.453-0.95-0.756  c-0.08-0.052-0.462-0.272-0.532-0.303c-0.436-0.196-1.714-0.937-2.329-1.059c-1.887-0.375-4.48,0.193-6.779,0.424  c-2.229,0.224-4.687,0.819-6.565,0.423c-1.12-0.236-1.685-0.994-2.542-1.695c-1.45,2.253-5.669,1.422-9.107,1.059  c-2.342-0.247-4.68-0.763-6.566-0.423c-1.368,0.247-4.168,1.963-4.872,3.389c-0.909,1.844-0.264,4.036-1.271,5.931  c-0.432,0.813-0.699,0.896-1.483,1.483c-0.665,0.497-1.895,0.947-2.965,1.694c-0.051-3.322-0.659-6.736-0.212-10.379  c0.115-0.935,0.548-2.326,1.059-3.601c0.219-0.545,0.566-0.89,0.847-1.482c0.568-1.194,0.846-1.924,1.694-2.965  c1.034-1.266,2.308-2.77,3.813-3.812c0.076-0.053,0.78-0.817,0.847-0.847c0.108-0.049,1.898-1.026,2.33-1.271  c2.123-1.206,4.71-2.373,8.049-2.754c1.058-0.121,2.124-0.389,3.177-0.211c0.817,0.138,1.729,0.85,2.542,1.271  C48.838,24.794,49.697,25.092,50.398,25.667z"/>
</svg>
